<svg viewBox="0 0 90 90" fill="none" xmlns="http://www.w3.org/2000/svg">
<rect x="-0.000244141" width="90" height="90" fill="#F0F2F5"/>
<path d="M52.4998 35C52.2236 35 51.9998 35.2239 51.9998 35.5V40.4326L49.3474 37.7803C48.3731 36.8087 46.7972 36.8056 45.8191 37.7734L44.8943 38.6904L42.1912 35.9843C41.2122 35.0142 39.6339 35.0151 38.656 35.9863L35.9998 38.6426V31.5C36.0007 30.6719 36.6717 30.0009 37.4998 30H46.4998C46.7759 30 46.9998 29.7761 46.9998 29.5C46.9998 29.2239 46.7759 29 46.4998 29H37.4998C36.1196 29.0013 35.001 30.1198 34.9998 31.5V44.5C35.001 45.8802 36.1196 46.9987 37.4998 47H50.4998C51.8799 46.9987 52.9985 45.8802 52.9998 44.5V35.5C52.9998 35.2239 52.7759 35 52.4998 35ZM50.4998 46H37.4998C36.6717 45.9991 36.0007 45.3281 35.9998 44.5V40.0566L39.363 36.6934C39.9506 36.1116 40.897 36.1111 41.4851 36.6924L50.7564 45.9739C50.6726 45.9885 50.5876 45.9999 50.4998 46ZM51.9998 44.5C51.9993 44.8638 51.8644 45.1927 51.6489 45.4524L45.6019 39.3988L46.5242 38.4834C47.1112 37.9039 48.0555 37.9056 48.6404 38.4873L51.9998 41.8467V44.5ZM52.7214 30.0038L54.3679 28.3574C54.3703 28.355 54.3726 28.3527 54.375 28.3503C54.5682 28.1531 54.5651 27.8365 54.3679 27.6433C54.1707 27.45 53.8542 27.4532 53.6609 27.6504L52.0144 29.2969L50.3679 27.6504C50.1735 27.4599 49.8624 27.4599 49.668 27.6504C49.4708 27.8437 49.4676 28.1602 49.6609 28.3574L51.3074 30.0039L49.6609 31.6504C49.5671 31.7441 49.5145 31.8713 49.5145 32.0038C49.5145 32.28 49.7383 32.5038 50.0144 32.5039C50.147 32.504 50.2742 32.4513 50.3679 32.3574L52.0143 30.7109L53.6609 32.3574C53.7545 32.4514 53.8818 32.5041 54.0144 32.5039V32.504C54.147 32.5039 54.274 32.4512 54.3678 32.3575C54.5631 32.1623 54.5631 31.8457 54.3679 31.6504L52.7214 30.0038Z" fill="black"/>
<path d="M19.8798 62C19.8211 62 19.7758 61.984 19.7438 61.952C19.7118 61.9147 19.6958 61.8693 19.6958 61.816V56.584C19.6958 56.5307 19.7118 56.488 19.7438 56.456C19.7758 56.4187 19.8211 56.4 19.8798 56.4H20.3038C20.3571 56.4 20.3998 56.4187 20.4318 56.456C20.4691 56.488 20.4878 56.5307 20.4878 56.584V61.816C20.4878 61.8693 20.4691 61.9147 20.4318 61.952C20.3998 61.984 20.3571 62 20.3038 62H19.8798ZM21.9633 62C21.9099 62 21.8646 61.984 21.8273 61.952C21.7953 61.9147 21.7793 61.8693 21.7793 61.816V58.024C21.7793 57.9707 21.7953 57.928 21.8273 57.896C21.8646 57.8587 21.9099 57.84 21.9633 57.84H22.3233C22.3766 57.84 22.4193 57.8587 22.4513 57.896C22.4886 57.928 22.5073 57.9707 22.5073 58.024V58.304C22.6299 58.1387 22.7846 58.008 22.9713 57.912C23.1579 57.8107 23.3819 57.76 23.6433 57.76C24.2459 57.7547 24.6726 58 24.9233 58.496C25.0459 58.272 25.2246 58.0933 25.4593 57.96C25.6939 57.8267 25.9606 57.76 26.2593 57.76C26.5366 57.76 26.7873 57.824 27.0113 57.952C27.2406 58.08 27.4193 58.2747 27.5473 58.536C27.6806 58.792 27.7473 59.1147 27.7473 59.504V61.816C27.7473 61.8693 27.7286 61.9147 27.6913 61.952C27.6593 61.984 27.6166 62 27.5633 62H27.1873C27.1339 62 27.0886 61.984 27.0513 61.952C27.0193 61.9147 27.0033 61.8693 27.0033 61.816V59.576C27.0033 59.2773 26.9606 59.0427 26.8753 58.872C26.7899 58.7013 26.6753 58.5813 26.5313 58.512C26.3873 58.4427 26.2299 58.408 26.0593 58.408C25.9206 58.408 25.7793 58.4427 25.6353 58.512C25.4913 58.5813 25.3713 58.7013 25.2753 58.872C25.1846 59.0427 25.1393 59.2773 25.1393 59.576V61.816C25.1393 61.8693 25.1206 61.9147 25.0833 61.952C25.0513 61.984 25.0086 62 24.9553 62H24.5793C24.5259 62 24.4806 61.984 24.4433 61.952C24.4113 61.9147 24.3953 61.8693 24.3953 61.816V59.576C24.3953 59.2773 24.3499 59.0427 24.2593 58.872C24.1686 58.7013 24.0513 58.5813 23.9073 58.512C23.7633 58.4427 23.6113 58.408 23.4513 58.408C23.3126 58.408 23.1713 58.4427 23.0273 58.512C22.8833 58.5813 22.7633 58.7013 22.6673 58.872C22.5766 59.0427 22.5313 59.2747 22.5313 59.568V61.816C22.5313 61.8693 22.5126 61.9147 22.4753 61.952C22.4433 61.984 22.4006 62 22.3473 62H21.9633ZM30.0486 62.08C29.782 62.08 29.5393 62.0267 29.3206 61.92C29.102 61.8133 28.926 61.6693 28.7926 61.488C28.6593 61.3067 28.5926 61.1013 28.5926 60.872C28.5926 60.504 28.742 60.2107 29.0406 59.992C29.3393 59.7733 29.7286 59.6293 30.2086 59.56L31.4006 59.392V59.16C31.4006 58.904 31.326 58.704 31.1766 58.56C31.0326 58.416 30.7953 58.344 30.4646 58.344C30.2246 58.344 30.03 58.392 29.8806 58.488C29.7366 58.584 29.6353 58.7067 29.5766 58.856C29.5446 58.936 29.4886 58.976 29.4086 58.976H29.0486C28.99 58.976 28.9446 58.96 28.9126 58.928C28.886 58.8907 28.8726 58.848 28.8726 58.8C28.8726 58.72 28.902 58.6213 28.9606 58.504C29.0246 58.3867 29.1206 58.272 29.2486 58.16C29.3766 58.048 29.5393 57.9547 29.7366 57.88C29.9393 57.8 30.1846 57.76 30.4726 57.76C30.7926 57.76 31.062 57.8027 31.2806 57.888C31.4993 57.968 31.67 58.0773 31.7926 58.216C31.9206 58.3547 32.0113 58.512 32.0646 58.688C32.1233 58.864 32.1526 59.0427 32.1526 59.224V61.816C32.1526 61.8693 32.134 61.9147 32.0966 61.952C32.0646 61.984 32.022 62 31.9686 62H31.6006C31.542 62 31.4966 61.984 31.4646 61.952C31.4326 61.9147 31.4166 61.8693 31.4166 61.816V61.472C31.3473 61.568 31.254 61.664 31.1366 61.76C31.0193 61.8507 30.8726 61.928 30.6966 61.992C30.5206 62.0507 30.3046 62.08 30.0486 62.08ZM30.2166 61.48C30.4353 61.48 30.6353 61.4347 30.8166 61.344C30.998 61.248 31.1393 61.1013 31.2406 60.904C31.3473 60.7067 31.4006 60.4587 31.4006 60.16V59.936L30.4726 60.072C30.094 60.1253 29.8086 60.216 29.6166 60.344C29.4246 60.4667 29.3286 60.624 29.3286 60.816C29.3286 60.9653 29.3713 61.0907 29.4566 61.192C29.5473 61.288 29.6593 61.36 29.7926 61.408C29.9313 61.456 30.0726 61.48 30.2166 61.48ZM35.0067 63.76C34.644 63.76 34.3454 63.712 34.1107 63.616C33.8814 63.52 33.7 63.4027 33.5667 63.264C33.4387 63.1307 33.3454 62.9947 33.2867 62.856C33.2334 62.7227 33.204 62.616 33.1987 62.536C33.1934 62.4827 33.2094 62.4373 33.2467 62.4C33.2894 62.3627 33.3347 62.344 33.3827 62.344H33.7667C33.8147 62.344 33.8547 62.3547 33.8867 62.376C33.9187 62.3973 33.9454 62.4427 33.9667 62.512C33.9987 62.592 34.0467 62.68 34.1107 62.776C34.1747 62.8773 34.2734 62.9627 34.4067 63.032C34.54 63.1067 34.7267 63.144 34.9667 63.144C35.2174 63.144 35.428 63.1093 35.5987 63.04C35.7694 62.976 35.8974 62.8587 35.9827 62.688C36.0734 62.5227 36.1187 62.2933 36.1187 62V61.456C35.9907 61.6213 35.8227 61.76 35.6147 61.872C35.4067 61.9787 35.1454 62.032 34.8307 62.032C34.532 62.032 34.276 61.9813 34.0627 61.88C33.8494 61.7733 33.6734 61.632 33.5347 61.456C33.4014 61.2747 33.3 61.0693 33.2307 60.84C33.1667 60.6107 33.1294 60.3707 33.1187 60.12C33.1134 59.9707 33.1134 59.824 33.1187 59.68C33.1294 59.4293 33.1667 59.1893 33.2307 58.96C33.3 58.7307 33.4014 58.5253 33.5347 58.344C33.6734 58.1627 33.8494 58.0213 34.0627 57.92C34.276 57.8133 34.532 57.76 34.8307 57.76C35.1507 57.76 35.4147 57.8213 35.6227 57.944C35.836 58.0613 36.0094 58.2053 36.1427 58.376V58.032C36.1427 57.9787 36.1587 57.9333 36.1907 57.896C36.228 57.8587 36.2734 57.84 36.3267 57.84H36.6947C36.748 57.84 36.7934 57.8587 36.8307 57.896C36.868 57.9333 36.8867 57.9787 36.8867 58.032V61.912C36.8867 62.2693 36.8254 62.5867 36.7027 62.864C36.5854 63.1413 36.388 63.36 36.1107 63.52C35.8387 63.68 35.4707 63.76 35.0067 63.76ZM34.9907 61.392C35.2574 61.392 35.4707 61.3307 35.6307 61.208C35.796 61.0853 35.916 60.9307 35.9907 60.744C36.0707 60.5573 36.1134 60.368 36.1187 60.176C36.124 60.1013 36.1267 60.0107 36.1267 59.904C36.1267 59.792 36.124 59.6987 36.1187 59.624C36.1134 59.432 36.0707 59.2427 35.9907 59.056C35.916 58.8693 35.796 58.7147 35.6307 58.592C35.4707 58.4693 35.2574 58.408 34.9907 58.408C34.724 58.408 34.5107 58.4693 34.3507 58.592C34.1907 58.7093 34.076 58.8667 34.0067 59.064C33.9374 59.256 33.8974 59.464 33.8867 59.688C33.8814 59.8267 33.8814 59.968 33.8867 60.112C33.8974 60.336 33.9374 60.5467 34.0067 60.744C34.076 60.936 34.1907 61.0933 34.3507 61.216C34.5107 61.3333 34.724 61.392 34.9907 61.392ZM39.7321 62.08C39.1828 62.08 38.7455 61.912 38.4201 61.576C38.0948 61.2347 37.9161 60.7707 37.8841 60.184C37.8788 60.1147 37.8761 60.0267 37.8761 59.92C37.8761 59.808 37.8788 59.7173 37.8841 59.648C37.9055 59.2693 37.9935 58.9387 38.1481 58.656C38.3028 58.368 38.5135 58.1467 38.7801 57.992C39.0521 57.8373 39.3695 57.76 39.7321 57.76C40.1375 57.76 40.4761 57.8453 40.7481 58.016C41.0255 58.1867 41.2361 58.4293 41.3801 58.744C41.5241 59.0587 41.5961 59.4267 41.5961 59.848V59.984C41.5961 60.0427 41.5775 60.088 41.5401 60.12C41.5081 60.152 41.4655 60.168 41.4121 60.168H38.6441C38.6441 60.1733 38.6441 60.184 38.6441 60.2C38.6441 60.216 38.6441 60.2293 38.6441 60.24C38.6548 60.4587 38.7028 60.664 38.7881 60.856C38.8735 61.0427 38.9961 61.1947 39.1561 61.312C39.3161 61.4293 39.5081 61.488 39.7321 61.488C39.9241 61.488 40.0841 61.4587 40.2121 61.4C40.3401 61.3413 40.4441 61.2773 40.5241 61.208C40.6041 61.1333 40.6575 61.0773 40.6841 61.04C40.7321 60.9707 40.7695 60.9307 40.7961 60.92C40.8228 60.904 40.8655 60.896 40.9241 60.896H41.3081C41.3615 60.896 41.4041 60.912 41.4361 60.944C41.4735 60.9707 41.4895 61.0107 41.4841 61.064C41.4788 61.144 41.4361 61.2427 41.3561 61.36C41.2761 61.472 41.1615 61.584 41.0121 61.696C40.8628 61.808 40.6815 61.9013 40.4681 61.976C40.2548 62.0453 40.0095 62.08 39.7321 62.08ZM38.6441 59.616H40.8361V59.592C40.8361 59.352 40.7908 59.1387 40.7001 58.952C40.6148 58.7653 40.4895 58.6187 40.3241 58.512C40.1588 58.4 39.9615 58.344 39.7321 58.344C39.5028 58.344 39.3055 58.4 39.1401 58.512C38.9801 58.6187 38.8575 58.7653 38.7721 58.952C38.6868 59.1387 38.6441 59.352 38.6441 59.592V59.616ZM44.8016 62C44.743 62 44.6976 61.984 44.6656 61.952C44.6336 61.9147 44.6176 61.8693 44.6176 61.816V56.592C44.6176 56.5333 44.6336 56.488 44.6656 56.456C44.6976 56.4187 44.743 56.4 44.8016 56.4H46.9936C47.3936 56.4 47.719 56.4667 47.9696 56.6C48.2256 56.728 48.4123 56.904 48.5296 57.128C48.6523 57.352 48.7136 57.6027 48.7136 57.88C48.7136 58.0987 48.6763 58.288 48.6016 58.448C48.5323 58.6027 48.4443 58.7307 48.3376 58.832C48.231 58.928 48.127 59.0027 48.0256 59.056C48.2336 59.1573 48.4176 59.3227 48.5776 59.552C48.743 59.7813 48.8256 60.0587 48.8256 60.384C48.8256 60.6773 48.759 60.9467 48.6256 61.192C48.4923 61.4373 48.2923 61.6347 48.0256 61.784C47.7643 61.928 47.439 62 47.0496 62H44.8016ZM45.4016 61.352H46.9456C47.2923 61.352 47.559 61.2587 47.7456 61.072C47.9323 60.8853 48.0256 60.656 48.0256 60.384C48.0256 60.1013 47.9323 59.8693 47.7456 59.688C47.559 59.5013 47.2923 59.408 46.9456 59.408H45.4016V61.352ZM45.4016 58.768H46.8736C47.215 58.768 47.4736 58.6907 47.6496 58.536C47.8256 58.376 47.9136 58.16 47.9136 57.888C47.9136 57.616 47.8256 57.408 47.6496 57.264C47.4736 57.12 47.215 57.048 46.8736 57.048H45.4016V58.768ZM50.0414 62C49.988 62 49.9427 61.984 49.9054 61.952C49.8734 61.9147 49.8574 61.8693 49.8574 61.816V58.032C49.8574 57.9787 49.8734 57.9333 49.9054 57.896C49.9427 57.8587 49.988 57.84 50.0414 57.84H50.4094C50.4627 57.84 50.508 57.8587 50.5454 57.896C50.5827 57.9333 50.6014 57.9787 50.6014 58.032V58.384C50.708 58.2027 50.8547 58.0667 51.0414 57.976C51.228 57.8853 51.452 57.84 51.7134 57.84H52.0334C52.0867 57.84 52.1294 57.8587 52.1614 57.896C52.1934 57.928 52.2094 57.9707 52.2094 58.024V58.352C52.2094 58.4053 52.1934 58.448 52.1614 58.48C52.1294 58.512 52.0867 58.528 52.0334 58.528H51.5534C51.2654 58.528 51.0387 58.6133 50.8734 58.784C50.708 58.9493 50.6254 59.176 50.6254 59.464V61.816C50.6254 61.8693 50.6067 61.9147 50.5694 61.952C50.532 61.984 50.4867 62 50.4334 62H50.0414ZM54.5223 62.08C54.117 62.08 53.7783 62.0027 53.5063 61.848C53.2343 61.6933 53.0263 61.48 52.8823 61.208C52.7383 60.9307 52.6583 60.616 52.6423 60.264C52.637 60.1733 52.6343 60.0587 52.6343 59.92C52.6343 59.776 52.637 59.6613 52.6423 59.576C52.6583 59.2187 52.7383 58.904 52.8823 58.632C53.0317 58.36 53.2423 58.1467 53.5143 57.992C53.7863 57.8373 54.1223 57.76 54.5223 57.76C54.9223 57.76 55.2583 57.8373 55.5303 57.992C55.8023 58.1467 56.0103 58.36 56.1543 58.632C56.3037 58.904 56.3863 59.2187 56.4023 59.576C56.4077 59.6613 56.4103 59.776 56.4103 59.92C56.4103 60.0587 56.4077 60.1733 56.4023 60.264C56.3863 60.616 56.3063 60.9307 56.1623 61.208C56.0183 61.48 55.8103 61.6933 55.5383 61.848C55.2663 62.0027 54.9277 62.08 54.5223 62.08ZM54.5223 61.464C54.853 61.464 55.117 61.36 55.3143 61.152C55.5117 60.9387 55.6183 60.6293 55.6343 60.224C55.6397 60.144 55.6423 60.0427 55.6423 59.92C55.6423 59.7973 55.6397 59.696 55.6343 59.616C55.6183 59.2107 55.5117 58.904 55.3143 58.696C55.117 58.4827 54.853 58.376 54.5223 58.376C54.1917 58.376 53.925 58.4827 53.7223 58.696C53.525 58.904 53.421 59.2107 53.4103 59.616C53.405 59.696 53.4023 59.7973 53.4023 59.92C53.4023 60.0427 53.405 60.144 53.4103 60.224C53.421 60.6293 53.525 60.9387 53.7223 61.152C53.925 61.36 54.1917 61.464 54.5223 61.464ZM57.6041 62C57.5507 62 57.5054 61.984 57.4681 61.952C57.4361 61.9147 57.4201 61.8693 57.4201 61.816V56.504C57.4201 56.4507 57.4361 56.408 57.4681 56.376C57.5054 56.3387 57.5507 56.32 57.6041 56.32H57.9801C58.0334 56.32 58.0761 56.3387 58.1081 56.376C58.1454 56.408 58.1641 56.4507 58.1641 56.504V59.288L59.7401 57.976C59.8041 57.9227 59.8521 57.888 59.8841 57.872C59.9214 57.8507 59.9801 57.84 60.0601 57.84H60.4841C60.5321 57.84 60.5721 57.856 60.6041 57.888C60.6361 57.92 60.6521 57.96 60.6521 58.008C60.6521 58.0293 60.6441 58.0533 60.6281 58.08C60.6174 58.1067 60.5934 58.1333 60.5561 58.16L58.7081 59.696L60.7561 61.688C60.8201 61.7413 60.8521 61.7893 60.8521 61.832C60.8521 61.88 60.8361 61.92 60.8041 61.952C60.7721 61.984 60.7321 62 60.6841 62H60.2681C60.1881 62 60.1294 61.992 60.0921 61.976C60.0547 61.9547 60.0067 61.9173 59.9481 61.864L58.1641 60.16V61.816C58.1641 61.8693 58.1454 61.9147 58.1081 61.952C58.0761 61.984 58.0334 62 57.9801 62H57.6041ZM62.9978 62.08C62.4484 62.08 62.0111 61.912 61.6858 61.576C61.3604 61.2347 61.1818 60.7707 61.1498 60.184C61.1444 60.1147 61.1418 60.0267 61.1418 59.92C61.1418 59.808 61.1444 59.7173 61.1498 59.648C61.1711 59.2693 61.2591 58.9387 61.4138 58.656C61.5684 58.368 61.7791 58.1467 62.0458 57.992C62.3178 57.8373 62.6351 57.76 62.9978 57.76C63.4031 57.76 63.7418 57.8453 64.0138 58.016C64.2911 58.1867 64.5018 58.4293 64.6458 58.744C64.7898 59.0587 64.8618 59.4267 64.8618 59.848V59.984C64.8618 60.0427 64.8431 60.088 64.8058 60.12C64.7738 60.152 64.7311 60.168 64.6778 60.168H61.9098C61.9098 60.1733 61.9098 60.184 61.9098 60.2C61.9098 60.216 61.9098 60.2293 61.9098 60.24C61.9204 60.4587 61.9684 60.664 62.0538 60.856C62.1391 61.0427 62.2618 61.1947 62.4218 61.312C62.5818 61.4293 62.7738 61.488 62.9978 61.488C63.1898 61.488 63.3498 61.4587 63.4778 61.4C63.6058 61.3413 63.7098 61.2773 63.7898 61.208C63.8698 61.1333 63.9231 61.0773 63.9498 61.04C63.9978 60.9707 64.0351 60.9307 64.0618 60.92C64.0884 60.904 64.1311 60.896 64.1898 60.896H64.5738C64.6271 60.896 64.6698 60.912 64.7018 60.944C64.7391 60.9707 64.7551 61.0107 64.7498 61.064C64.7444 61.144 64.7018 61.2427 64.6218 61.36C64.5418 61.472 64.4271 61.584 64.2778 61.696C64.1284 61.808 63.9471 61.9013 63.7338 61.976C63.5204 62.0453 63.2751 62.08 62.9978 62.08ZM61.9098 59.616H64.1018V59.592C64.1018 59.352 64.0564 59.1387 63.9658 58.952C63.8804 58.7653 63.7551 58.6187 63.5898 58.512C63.4244 58.4 63.2271 58.344 62.9978 58.344C62.7684 58.344 62.5711 58.4 62.4058 58.512C62.2458 58.6187 62.1231 58.7653 62.0378 58.952C61.9524 59.1387 61.9098 59.352 61.9098 59.592V59.616ZM66.0023 62C65.949 62 65.9037 61.984 65.8663 61.952C65.8343 61.9147 65.8183 61.8693 65.8183 61.816V58.024C65.8183 57.9707 65.8343 57.928 65.8663 57.896C65.9037 57.8587 65.949 57.84 66.0023 57.84H66.3783C66.4317 57.84 66.4743 57.8587 66.5063 57.896C66.5437 57.928 66.5623 57.9707 66.5623 58.024V58.376C66.701 58.1947 66.8743 58.048 67.0823 57.936C67.2957 57.8187 67.5677 57.76 67.8983 57.76C68.245 57.76 68.5383 57.8373 68.7783 57.992C69.0237 58.1413 69.2077 58.352 69.3303 58.624C69.453 58.8907 69.5143 59.2027 69.5143 59.56V61.816C69.5143 61.8693 69.4983 61.9147 69.4663 61.952C69.4343 61.984 69.3917 62 69.3383 62H68.9383C68.885 62 68.8397 61.984 68.8023 61.952C68.7703 61.9147 68.7543 61.8693 68.7543 61.816V59.6C68.7543 59.2267 68.6637 58.936 68.4823 58.728C68.301 58.5147 68.0343 58.408 67.6823 58.408C67.3517 58.408 67.085 58.5147 66.8823 58.728C66.685 58.936 66.5863 59.2267 66.5863 59.6V61.816C66.5863 61.8693 66.5677 61.9147 66.5303 61.952C66.4983 61.984 66.4557 62 66.4023 62H66.0023Z" fill="#4D4D4D"/>
</svg>
