<svg width="24" height="24" viewBox="0 0 24 24" fill="none" xmlns="http://www.w3.org/2000/svg">
<path d="M17 16.0001H6.00004C5.02145 16 4.07682 15.6412 3.34492 14.9916C2.61302 14.342 2.14462 13.4467 2.02835 12.475C1.91208 11.5033 2.156 10.5228 2.71397 9.71882C3.27194 8.91488 4.10524 8.34335 5.05619 8.11238C5.25013 6.5916 5.93814 5.1766 7.01446 4.08486C8.09079 2.99312 9.49586 2.28506 11.0137 2.06952C12.5316 1.85397 14.0782 2.14287 15.4159 2.8918C16.7537 3.64073 17.8084 4.80825 18.418 6.21492C19.5705 6.5547 20.5618 7.29853 21.2102 8.31C21.8587 9.32147 22.1208 10.5328 21.9484 11.7218C21.7761 12.9109 21.181 13.998 20.2721 14.7838C19.3632 15.5696 18.2015 16.0014 17 16.0001Z" fill="#FFD688"/>
<path d="M12 21.9999C11.8686 22 11.7385 21.9742 11.6172 21.9239C11.4959 21.8736 11.3857 21.7999 11.293 21.7069L8.79296 19.2069C8.60825 19.0188 8.50529 18.7654 8.50648 18.5017C8.50767 18.2381 8.61292 17.9856 8.79933 17.7992C8.98574 17.6128 9.23822 17.5076 9.50183 17.5064C9.76545 17.5052 10.0189 17.6082 10.207 17.7929L12 19.5858L13.793 17.7928C13.9809 17.6072 14.2346 17.5036 14.4987 17.5044C14.7628 17.5052 15.0158 17.6105 15.2026 17.7973C15.3893 17.984 15.4946 18.2371 15.4954 18.5012C15.4962 18.7653 15.3925 19.019 15.207 19.2069L12.707 21.7069C12.6142 21.7999 12.504 21.8736 12.3827 21.9239C12.2614 21.9742 12.1313 22 12 21.9999Z" fill="#FFBB38"/>
<path d="M12 22C11.8687 22 11.7386 21.9742 11.6173 21.9239C11.4959 21.8737 11.3857 21.8 11.2928 21.7072C11.2 21.6143 11.1263 21.5041 11.0761 21.3827C11.0258 21.2614 11 21.1313 11 21V11C11 10.7348 11.1054 10.4804 11.2929 10.2929C11.4804 10.1054 11.7348 10 12 10C12.2652 10 12.5196 10.1054 12.7071 10.2929C12.8946 10.4804 13 10.7348 13 11V21C13 21.1313 12.9742 21.2614 12.9239 21.3827C12.8737 21.5041 12.8 21.6143 12.7072 21.7072C12.6143 21.8 12.5041 21.8737 12.3827 21.9239C12.2614 21.9742 12.1313 22 12 22Z" fill="#FFBB38"/>
</svg>
