<svg  viewBox="0 0 24 24" fill="none" xmlns="http://www.w3.org/2000/svg">
<path d="M20.0571 22H3.94289C3.41237 21.9999 2.89123 21.8602 2.43181 21.5949C1.97239 21.3296 1.59089 20.9481 1.32562 20.4886C1.06035 20.0292 0.920663 19.508 0.920593 18.9775C0.920523 18.447 1.06007 17.9258 1.32522 17.4663L9.38234 3.51123C9.64765 3.05176 10.0292 2.67021 10.4887 2.40493C10.9482 2.13966 11.4694 2 12 2C12.5306 2 13.0518 2.13966 13.5113 2.40493C13.9708 2.67021 14.3524 3.05176 14.6177 3.51123L22.6748 17.4663C22.94 17.9258 23.0795 18.447 23.0794 18.9775C23.0794 19.508 22.9397 20.0292 22.6744 20.4886C22.4092 20.9481 22.0276 21.3296 21.5682 21.5949C21.1088 21.8602 20.5877 21.9999 20.0571 22Z" fill="#FF4040"/>
<path d="M12 18C12.5523 18 13 17.5523 13 17C13 16.4477 12.5523 16 12 16C11.4477 16 11 16.4477 11 17C11 17.5523 11.4477 18 12 18Z" fill="#A00055"/>
<path d="M12 14C11.7348 14 11.4804 13.8946 11.2929 13.7071C11.1054 13.5196 11 13.2652 11 13V9C11 8.73478 11.1054 8.48043 11.2929 8.29289C11.4804 8.10536 11.7348 8 12 8C12.2652 8 12.5196 8.10536 12.7071 8.29289C12.8946 8.48043 13 8.73478 13 9V13C13 13.2652 12.8946 13.5196 12.7071 13.7071C12.5196 13.8946 12.2652 14 12 14Z" fill="#A00055"/>
</svg>
