<svg viewBox="0 0 48 48" fill="none" xmlns="http://www.w3.org/2000/svg">
<path d="M40.1144 44H7.8859C6.82487 43.9998 5.78258 43.7204 4.86374 43.1898C3.94491 42.6592 3.1819 41.8961 2.65136 40.9773C2.12082 40.0584 1.84145 39.0161 1.84131 37.955C1.84117 36.894 2.12027 35.8516 2.65056 34.9326L18.7648 7.02247C19.2954 6.10351 20.0586 5.34041 20.9776 4.80986C21.8966 4.27931 22.939 4 24.0002 4C25.0613 4 26.1038 4.27931 27.0228 4.80986C27.9417 5.34041 28.7049 6.10351 29.2355 7.02247L45.3498 34.9326C45.8801 35.8516 46.1592 36.894 46.159 37.955C46.1589 39.0161 45.8795 40.0584 45.349 40.9773C44.8184 41.8961 44.0554 42.6592 43.1366 43.1898C42.2177 43.7204 41.1755 43.9998 40.1144 44Z" fill="#FFD688"/>
<path d="M24 36C25.1046 36 26 35.1046 26 34C26 32.8954 25.1046 32 24 32C22.8954 32 22 32.8954 22 34C22 35.1046 22.8954 36 24 36Z" fill="#E6A832"/>
<path d="M24 28C23.4696 28 22.9609 27.7893 22.5858 27.4142C22.2107 27.0391 22 26.5304 22 26V18C22 17.4696 22.2107 16.9609 22.5858 16.5858C22.9609 16.2107 23.4696 16 24 16C24.5304 16 25.0391 16.2107 25.4142 16.5858C25.7893 16.9609 26 17.4696 26 18V26C26 26.5304 25.7893 27.0391 25.4142 27.4142C25.0391 27.7893 24.5304 28 24 28Z" fill="#E6A832"/>
</svg>
