<svg viewBox="0 0 16 16" fill="none" xmlns="http://www.w3.org/2000/svg">
<path d="M14.7104 1.2101C14.6175 1.11638 14.5069 1.04198 14.385 0.991213C14.2632 0.940445 14.1324 0.914307 14.0004 0.914307C13.8684 0.914307 13.7377 0.940445 13.6159 0.991213C13.494 1.04198 13.3834 1.11638 13.2904 1.2101L5.84044 8.6701L2.71044 5.5301C2.61392 5.43687 2.49998 5.36355 2.37512 5.31435C2.25026 5.26514 2.11694 5.24101 1.98276 5.24334C1.84858 5.24566 1.71617 5.27438 1.59309 5.32788C1.47001 5.38137 1.35868 5.45858 1.26544 5.55511C1.1722 5.65163 1.09889 5.76557 1.04968 5.89042C1.00048 6.01528 0.976347 6.1486 0.978669 6.28278C0.98099 6.41696 1.00972 6.54937 1.06321 6.67245C1.1167 6.79553 1.19392 6.90687 1.29044 7.0001L5.13044 10.8401C5.2234 10.9338 5.334 11.0082 5.45586 11.059C5.57772 11.1098 5.70843 11.1359 5.84044 11.1359C5.97245 11.1359 6.10316 11.1098 6.22502 11.059C6.34687 11.0082 6.45748 10.9338 6.55044 10.8401L14.7104 2.68011C14.8119 2.58646 14.893 2.47281 14.9484 2.34631C15.0038 2.21981 15.0324 2.08321 15.0324 1.94511C15.0324 1.807 15.0038 1.6704 14.9484 1.5439C14.893 1.4174 14.8119 1.30375 14.7104 1.2101Z" fill="currentColor"/>
</svg>
