<svg viewBox="0 0 24 24" fill="none" xmlns="http://www.w3.org/2000/svg">
<path d="M14.2902 14.1901L11.0002 17.4801L9.71019 16.1901C9.61722 16.0964 9.50662 16.022 9.38476 15.9712C9.2629 15.9205 9.1322 15.8943 9.00019 15.8943C8.86817 15.8943 8.73747 15.9205 8.61561 15.9712C8.49375 16.022 8.38315 16.0964 8.29019 16.1901C8.10393 16.3775 7.99939 16.631 7.99939 16.8951C7.99939 17.1593 8.10393 17.4128 8.29019 17.6001L10.2902 19.6001C10.3831 19.6939 10.4937 19.7683 10.6156 19.819C10.7375 19.8698 10.8682 19.8959 11.0002 19.8959C11.1322 19.8959 11.2629 19.8698 11.3848 19.819C11.5066 19.7683 11.6172 19.6939 11.7102 19.6001L15.7102 15.6001C15.8964 15.4128 16.001 15.1593 16.001 14.8951C16.001 14.631 15.8964 14.3775 15.7102 14.1901C15.6172 14.0964 15.5066 14.022 15.3848 13.9712C15.2629 13.9205 15.1322 13.8943 15.0002 13.8943C14.8682 13.8943 14.7375 13.9205 14.6156 13.9712C14.4937 14.022 14.3831 14.0964 14.2902 14.1901V14.1901ZM18.4202 8.32014C17.8085 6.91595 16.7531 5.75114 15.4159 5.0043C14.0787 4.25746 12.5334 3.96981 11.0171 4.18546C9.50069 4.40112 8.09689 5.10816 7.0209 6.1982C5.94492 7.28824 5.25615 8.70109 5.06019 10.2201C4.22618 10.4271 3.48098 10.8971 2.93493 11.5606C2.38887 12.224 2.071 13.0457 2.02837 13.904C1.98573 14.7622 2.22061 15.6114 2.69823 16.3257C3.17584 17.04 3.87079 17.5816 4.68019 17.8701C4.80792 17.9372 4.94864 17.9758 5.09269 17.9833C5.23675 17.9908 5.38072 17.9671 5.51474 17.9137C5.64876 17.8604 5.76964 17.7786 5.86911 17.6742C5.96857 17.5697 6.04425 17.4449 6.09096 17.3085C6.13767 17.172 6.1543 17.027 6.13971 16.8835C6.12512 16.74 6.07965 16.6013 6.00643 16.477C5.93321 16.3528 5.83397 16.2458 5.71552 16.1635C5.59706 16.0812 5.4622 16.0254 5.32019 16.0001C4.93042 15.8592 4.59405 15.6007 4.35758 15.2604C4.12111 14.92 3.99622 14.5146 4.00019 14.1001C4.00019 13.5697 4.2109 13.061 4.58597 12.6859C4.96105 12.3109 5.46975 12.1001 6.00019 12.1001C6.2654 12.1001 6.51976 11.9948 6.70729 11.8072C6.89483 11.6197 7.00019 11.3654 7.00019 11.1001C7.00508 9.91827 7.42848 8.77634 8.19526 7.87696C8.96204 6.97757 10.0226 6.37888 11.1888 6.18711C12.3551 5.99534 13.5515 6.22288 14.5659 6.82937C15.5803 7.43585 16.3471 8.38207 16.7302 9.50014C16.7888 9.67012 16.8923 9.82113 17.0295 9.93728C17.1668 10.0534 17.3328 10.1304 17.5102 10.1601C18.1763 10.286 18.7801 10.6337 19.2232 11.1467C19.6664 11.6596 19.9228 12.3075 19.9506 12.9848C19.9784 13.6621 19.7761 14.3288 19.3765 14.8764C18.9769 15.4239 18.4037 15.82 17.7502 16.0001C17.485 16.0333 17.2438 16.1704 17.0797 16.3814C16.9156 16.5924 16.842 16.8599 16.8752 17.1251C16.9083 17.3904 17.0455 17.6315 17.2565 17.7956C17.4674 17.9597 17.735 18.0333 18.0002 18.0001H18.2502C19.3026 17.7221 20.2355 17.1081 20.9072 16.2516C21.5789 15.3951 21.9528 14.3427 21.972 13.2544C21.9913 12.1661 21.6548 11.1012 21.0138 10.2215C20.3727 9.34174 19.4621 8.69524 18.4202 8.38014V8.32014Z" fill="currentColor"/>
</svg>
